#!OML:ASF X:\für Bonn\!DataBase\2005_08_10_Bjorn_Final\c3d\bjorn.ASF
:FULLY-SPECIFIED
:DEGREES
65
root 0.556835 12.1 3.28013 -176.657 -0.47724 -179.912
lowerback 17.5223 1.45494 4.98197
upperback 8.74354 1.15994 0.518455
thorax -0.307003 0.0846121 -2.46195
lowerneck -16.202 -2.75224 -2.18933
upperneck 3.94822 -3.38807 -0.243311
head 3.79596 -1.80191 0.00472071
rclavicle -3.57812e-015 1.03368e-014
rhumerus 77.3043 2.88046 -73.5953
rradius 9.54855
rwrist 46.1584
rhand -15.0389 9.91207
rfingers 7.12502
rthumb 11.1273 -19.7729
lclavicle -3.57812e-015 1.03368e-014
lhumerus 77.956 -13.8921 78.8096
lradius 7.91888
lwrist -51.8813
lhand -28.0958 -8.43898
lfingers 7.12502
lthumb -1.47841 21.5356
rfemur -70.0093 -23.3479 12.0288
rtibia 122.888
rfoot -29.7882 32.6119
rtoes -20.4609
lfemur -69.8786 12.565 -14.7992
ltibia 125.504
lfoot -30.2916 -14.9944
ltoes -31.5386
66
root 0.55201 11.8591 3.29833 -176.946 -0.520228 -179.871
lowerback 18.103 1.44266 5.0701
upperback 8.9661 1.09586 0.57358
thorax -0.366805 0.0199211 -2.44885
lowerneck -16.6705 -2.72146 -2.25626
upperneck 3.77522 -3.35243 -0.156011
head 3.81679 -1.78941 0.0393895
rclavicle -1.59028e-015 -4.37326e-015
rhumerus 77.3335 2.82306 -73.4731
rradius 9.47303
rwrist 45.7638
rhand -15.1375 9.96379
rfingers 7.12502
rthumb 11.0321 -19.7263
lclavicle -1.59028e-015 -4.37326e-015
lhumerus 77.9413 -13.812 78.7793
lradius 7.92749
lwrist -51.4073
lhand -27.8274 -8.64653
lfingers 7.12502
lthumb -1.21921 21.3297
rfemur -71.1268 -25.3364 11.6771
rtibia 124.831
rfoot -30.0129 33.9349
rtoes -21.5243
lfemur -70.9838 14.1582 -14.5536
ltibia 127.44
lfoot -30.3488 -16.4876
ltoes -30.8152
67
root 0.547707 11.6184 3.3154 -177.255 -0.573175 -179.81
lowerback 18.6942 1.41765 5.19059
upperback 9.18805 1.01841 0.628157
thorax -0.429834 -0.0518384 -2.45126
lowerneck -17.1402 -2.68625 -2.25385
upperneck 3.59048 -3.32178 -0.146747
head 3.83125 -1.7839 0.0387585
rclavicle -1.35174e-014 -9.14409e-015
rhumerus 77.3964 2.78524 -73.3652
rradius 9.35614
rwrist 45.3006
rhand -15.4029 10.034
rfingers 7.12502
rthumb 10.7762 -19.6695
lclavicle -1.35174e-014 -9.14409e-015
lhumerus 77.9226 -13.7211 78.738
lradius 7.92861
lwrist -50.9659
lhand -27.5059 -8.83521
lfingers 7.12502
lthumb -0.908703 21.1426
rfemur -72.2186 -27.5571 11.3203
rtibia 126.738
rfoot -30.2042 35.4287
rtoes -22.3538
lfemur -72.0932 16.0054 -14.3384
ltibia 129.37
lfoot -30.6341 -17.6097
ltoes -31.1079
68
root 0.54265 11.377 3.33199 -177.543 -0.603063 -179.786
lowerback 19.2608 1.41296 5.28372
upperback 9.41123 0.961834 0.666673
thorax -0.475799 -0.113327 -2.45779
lowerneck -17.676 -2.65239 -2.21458
upperneck 3.43551 -3.29886 -0.173515
head 3.86344 -1.78502 0.0193391
rclavicle 3.57812e-015 1.55052e-014
rhumerus 77.4911 2.69324 -73.2457
rradius 9.24087
rwrist 44.7334
rhand -15.6437 10.1841
rfingers 7.12502
rthumb 10.5439 -19.5314
lclavicle 3.57812e-015 1.55052e-014
lhumerus 77.9319 -13.6431 78.6924
lradius 7.92866
lwrist -50.7179
lhand -27.2135 -8.97664
lfingers 7.12502
lthumb -0.626248 21.0022
rfemur -73.3651 -30.094 10.8854
rtibia 128.631
rfoot -30.3363 37.1881
rtoes -22.9207
lfemur -73.2429 18.1138 -14.2087
ltibia 131.282
lfoot -30.995 -18.6666
ltoes -31.6005
69
root 0.537935 11.1379 3.34826 -177.852 -0.65264 -179.765
lowerback 19.8454 1.40115 5.39595
upperback 9.62486 0.900724 0.694367
thorax -0.538154 -0.176902 -2.48503
lowerneck -18.1735 -2.62569 -2.13674
upperneck 3.28164 -3.29309 -0.2376
head 3.88854 -1.79658 -0.0186161
rclavicle -3.02153e-014 -3.18055e-014
rhumerus 77.6133 2.58717 -73.1361
rradius 9.04531
rwrist 44.1259
rhand -15.9713 10.3307
rfingers 7.12502
rthumb 10.2278 -19.4007
lclavicle -3.02153e-014 -3.18055e-014
lhumerus 77.9387 -13.5982 78.6416
lradius 7.89881
lwrist -50.5682
lhand -26.9717 -9.02724
lfingers 7.12502
lthumb -0.392717 20.9521
rfemur -74.4874 -32.9456 10.4024
rtibia 130.485
rfoot -30.2925 39.2105
rtoes -22.9433
lfemur -74.3852 20.4708 -14.0982
ltibia 133.164
lfoot -31.4874 -19.676
ltoes -32.3492
70
root 0.532941 10.9011 3.36324 -178.121 -0.684246 -179.741
lowerback 20.3751 1.38879 5.50027
upperback 9.82596 0.839639 0.730695
thorax -0.584811 -0.239087 -2.49737
lowerneck -18.7105 -2.58451 -2.04521
upperneck 3.17287 -3.26874 -0.337481
head 3.93226 -1.80171 -0.0692898
rclavicle 5.1684e-015 -1.27222e-014
rhumerus 77.7536 2.50641 -73.0141
rradius 8.86618
rwrist 43.626
rhand -16.2084 10.4742
rfingers 7.12502
rthumb 9.99906 -19.2682
lclavicle 5.1684e-015 -1.27222e-014
lhumerus 77.9664 -13.5048 78.5971
lradius 7.81644
lwrist -50.573
lhand -26.8496 -9.02306
lfingers 7.12502
lthumb -0.274838 20.9565
rfemur -75.6531 -36.0671 9.92502
rtibia 132.298
rfoot -30.2583 41.3883
rtoes -22.7119
lfemur -75.593 23.1695 -14.0426
ltibia 135.014
lfoot -32.0307 -20.7319
ltoes -33.0268
71
root 0.528328 10.6691 3.3767 -178.419 -0.724597 -179.719
lowerback 20.9213 1.37166 5.62017
upperback 10.0365 0.770974 0.75176
thorax -0.62677 -0.305901 -2.53256
lowerneck -19.243 -2.53669 -1.89382
upperneck 3.0521 -3.24921 -0.488927
head 3.96937 -1.81282 -0.145781
rclavicle -1.74931e-014 -1.74931e-014
rhumerus 77.8215 2.41446 -72.9206
rradius 8.86267
rwrist 43.2014
rhand -16.293 10.5587
rfingers 7.12502
rthumb 9.91744 -19.1877
lclavicle -1.74931e-014 -1.74931e-014
lhumerus 77.9596 -13.4465 78.538
lradius 7.80448
lwrist -50.7737
lhand -26.8367 -8.88962
lfingers 7.12502
lthumb -0.262362 21.09
rfemur -76.7784 -39.4973 9.44359
rtibia 134.069
rfoot -30.4484 43.5261
rtoes -22.7567
lfemur -76.7708 26.2002 -14.0168
ltibia 136.817
lfoot -32.7256 -21.7788
ltoes -33.7055
